<svg xmlns="http://www.w3.org/2000/svg" xmlns:xlink="http://www.w3.org/1999/xlink" version="1.1" x="0px" y="0px" viewBox="0 0 100 125" enable-background="new 0 0 100 100" xml:space="preserve"><circle cx="50.1" cy="39.5" r="16.7"/><path d="M50,3.6C24.5,3.6,3.7,24.3,3.7,49.9S24.5,96.2,50,96.2s46.3-20.8,46.3-46.3S75.5,3.6,50,3.6z M77.2,79.1  C73.8,70,66.4,60.3,50,60.3c-16.3,0-23.8,9.7-27.2,18.8C15,71.8,10,61.4,10,49.9c0-22,17.9-40,40-40s40,17.9,40,40  C90,61.4,85,71.8,77.2,79.1z"/><text x="0" y="115" fill="#000000" font-size="5px" font-weight="bold" font-family="'Helvetica Neue', Helvetica, Arial-Unicode, Arial, Sans-serif">Created by Aneeque Ahmed</text><text x="0" y="120" fill="#000000" font-size="5px" font-weight="bold" font-family="'Helvetica Neue', Helvetica, Arial-Unicode, Arial, Sans-serif">from the Noun Project</text></svg>